<svg width="32" height="24" viewBox="0 0 32 24" fill="none" xmlns="http://www.w3.org/2000/svg">
<g clip-path="url(#clip0_1159_8378)">
<rect width="32" height="24" fill="white"/>
<path fill-rule="evenodd" clip-rule="evenodd" d="M8 0H24V24H8V0Z" fill="#F7FCFF"/>
<path d="M16 20H15.3145L15.7354 16.5352C15.7354 16.5352 11.1236 17.3823 11.5049 16.9551C11.8835 16.5306 12.1026 15.7545 12.1055 15.7441L8 12.9482C8 12.9482 8.64793 12.94 9.1748 12.6201C9.70163 12.3002 8.64746 10.4023 8.64746 10.4023L10.7207 10.7109L11.5049 9.84082L13.0684 11.5117H13.7715L13.0684 7.68359L14.3291 8.40234L15.9727 6L16 20ZM17.6709 8.40234L18.9316 7.68359L18.2285 11.5117H18.9316L20.4951 9.84082L21.2793 10.7109L23.3525 10.4023C23.3525 10.4023 22.2984 12.3002 22.8252 12.6201C23.3521 12.94 24 12.9482 24 12.9482L19.8945 15.7441C19.8974 15.7545 20.1165 16.5306 20.4951 16.9551C20.8764 17.3823 16.2646 16.5352 16.2646 16.5352L16.6855 20H16V6L17.6709 8.40234Z" fill="#E31D1C"/>
<path fill-rule="evenodd" clip-rule="evenodd" d="M24 0H32V24H24V0Z" fill="#E31D1C"/>
<path fill-rule="evenodd" clip-rule="evenodd" d="M0 0H8V24H0V0Z" fill="#E31D1C"/>
</g>
<defs>
<clipPath id="clip0_1159_8378">
<rect width="32" height="24" fill="white"/>
</clipPath>
</defs>
</svg>
