<svg width="16" height="16" viewBox="0 0 16 16" fill="none" xmlns="http://www.w3.org/2000/svg">
<g clip-path="url(#clip0_1159_8301)">
<path d="M13.5447 2.9133C12.5074 2.43716 11.4127 2.09762 10.288 1.90318C10.2777 1.90128 10.2672 1.90264 10.2578 1.90709C10.2484 1.91153 10.2406 1.91882 10.2356 1.92793C10.095 2.17808 9.93918 2.5044 9.83009 2.7609C8.60031 2.57677 7.3768 2.57677 6.17224 2.7609C6.06312 2.49871 5.90168 2.17808 5.7604 1.92793C5.75518 1.91902 5.74739 1.91189 5.73805 1.90747C5.72871 1.90306 5.71826 1.90156 5.70805 1.90318C4.5653 2.09999 3.47174 2.44474 2.4513 2.9133C2.44243 2.91707 2.43493 2.9235 2.42987 2.93171C0.355617 6.03061 -0.212633 9.05337 0.0661173 12.0386C0.0673673 12.0532 0.075586 12.0672 0.0869298 12.0761C1.45546 13.0811 2.78115 13.6912 4.08218 14.0956C4.0923 14.0987 4.10309 14.0985 4.11313 14.0952C4.12316 14.0919 4.13194 14.0857 4.1383 14.0772C4.44605 13.657 4.7204 13.2138 4.95562 12.7478C4.96949 12.7205 4.95624 12.6881 4.92787 12.6773C4.49271 12.5122 4.07837 12.311 3.67977 12.0824C3.64824 12.064 3.64571 12.0189 3.67474 11.9973C3.75885 11.9345 3.8415 11.8697 3.92262 11.8031C3.92973 11.7972 3.93834 11.7934 3.94748 11.7922C3.95662 11.791 3.96592 11.7923 3.97434 11.7961C6.59284 12.9916 9.42768 12.9916 12.0153 11.7961C12.0237 11.792 12.0331 11.7905 12.0424 11.7916C12.0516 11.7928 12.0604 11.7965 12.0676 11.8024C12.1488 11.8694 12.2317 11.9344 12.3161 11.9973C12.3451 12.0189 12.3432 12.064 12.3117 12.0824C11.9131 12.3154 11.4988 12.5122 11.063 12.6766C11.0563 12.6792 11.0502 12.6832 11.0451 12.6882C11.04 12.6933 11.0361 12.6994 11.0335 12.7061C11.031 12.7128 11.0299 12.72 11.0303 12.7272C11.0307 12.7344 11.0326 12.7414 11.0359 12.7477C11.2762 13.2131 11.5505 13.6563 11.8526 14.0766C11.8652 14.0944 11.8879 14.102 11.9087 14.0956C13.2161 13.6912 14.5417 13.0811 15.9103 12.076C15.9162 12.0717 15.9211 12.0662 15.9247 12.0599C15.9282 12.0535 15.9304 12.0465 15.9311 12.0392C16.2647 8.58793 15.3723 5.58996 13.5655 2.9323C13.561 2.9237 13.5537 2.91696 13.5447 2.9133ZM5.34671 10.2209C4.55837 10.2209 3.90877 9.49715 3.90877 8.60827C3.90877 7.7194 4.54574 6.99565 5.34671 6.99565C6.15393 6.99565 6.79724 7.72577 6.78462 8.60827C6.78462 9.49715 6.14762 10.2209 5.34671 10.2209ZM10.6632 10.2209C9.87487 10.2209 9.22527 9.49715 9.22527 8.60827C9.22527 7.7194 9.86224 6.99565 10.6632 6.99565C11.4704 6.99565 12.1137 7.72577 12.1011 8.60827C12.1011 9.49715 11.4705 10.2209 10.6632 10.2209Z" fill="white"/>
</g>
<defs>
<clipPath id="clip0_1159_8301">
<rect width="16" height="16" fill="white"/>
</clipPath>
</defs>
</svg>
