<svg width="15" height="15" viewBox="0 0 15 15" fill="none" xmlns="http://www.w3.org/2000/svg">
<path d="M11.25 0H3.75C1.68 0 0 1.68 0 3.75V11.25C0 13.32 1.68 15 3.75 15H11.25C13.32 15 15 13.32 15 11.25V3.75C15 1.68 13.32 0 11.25 0ZM7.5 11.25C5.43 11.25 3.75 9.57 3.75 7.5C3.75 5.43 5.43 3.75 7.5 3.75C9.57 3.75 11.25 5.43 11.25 7.5C11.25 9.57 9.57 11.25 7.5 11.25ZM11.5125 4.215C11.1 4.215 10.7625 3.8775 10.7625 3.465C10.7625 3.0525 11.1 2.715 11.5125 2.715C11.925 2.715 12.2625 3.0525 12.2625 3.465C12.2625 3.8775 11.925 4.215 11.5125 4.215Z" fill="white"/>
<path d="M7.5 9.75C8.74264 9.75 9.75 8.74264 9.75 7.5C9.75 6.25736 8.74264 5.25 7.5 5.25C6.25736 5.25 5.25 6.25736 5.25 7.5C5.25 8.74264 6.25736 9.75 7.5 9.75Z" fill="white"/>
</svg>
