<svg width="32" height="24" viewBox="0 0 32 24" fill="none" xmlns="http://www.w3.org/2000/svg">
<path fill-rule="evenodd" clip-rule="evenodd" d="M0 0H32V24H0V0Z" fill="#E31D1C"/>
<path d="M32 22V24H0V22H32ZM32 20H0V18H32V20ZM32 16H0V14H32V16ZM32 12H0V10H32V12ZM32 8H0V6H32V8ZM32 4H0V2H32V4Z" fill="#F7FCFF"/>
<rect width="18" height="14" fill="#2E42A5"/>
<path d="M15.6216 2.20117H16.6704L15.8462 3.03418L16.1655 4.34766L15.1401 3.60938L14.2905 4.20117H14.6704L13.8462 5.03418L14.1304 6.20117H14.7261L15.1382 5.12891L15.6216 6.20117H16.6704L15.8462 7.03418L16.1655 8.34766L15.1401 7.60938L14.2905 8.20117H14.6704L13.8462 9.03418L14.1304 10.2012H14.7261L15.1382 9.12891L15.6216 10.2012H16.6704L15.8462 11.0342L16.1655 12.3477L15.1401 11.6094L14.0806 12.3477L14.438 11.0342L13.4966 10.2012H13.9624L13.1401 9.60938L12.2905 10.2012H12.6704L11.8462 11.0342L12.1655 12.3477L11.1401 11.6094L10.0806 12.3477L10.438 11.0342L9.49658 10.2012H9.9624L9.14014 9.60938L8.29053 10.2012H8.67041L7.84619 11.0342L8.16553 12.3477L7.14014 11.6094L6.08057 12.3477L6.43799 11.0342L5.49658 10.2012H5.9624L5.14014 9.60938L4.29053 10.2012H4.67041L3.84619 11.0342L4.16553 12.3477L3.14014 11.6094L2.08057 12.3477L2.43799 11.0342L1.49658 10.2012H2.72607L3.13818 9.12891L3.62158 10.2012H4.12061L4.43799 9.03418L3.49658 8.20117H3.9624L3.14014 7.60938L2.08057 8.34766L2.43799 7.03418L1.49658 6.20117H2.72607L3.13818 5.12891L3.62158 6.20117H4.12061L4.43799 5.03418L3.49658 4.20117H3.9624L3.14014 3.60938L2.08057 4.34766L2.43799 3.03418L1.49658 2.20117H2.72607L3.13818 1.12891L3.62158 2.20117H4.67041L3.84619 3.03418L4.13037 4.20117H4.72607L5.13818 3.12891L5.62158 4.20117H6.12061L6.43799 3.03418L5.49658 2.20117H6.72607L7.13818 1.12891L7.62158 2.20117H8.67041L7.84619 3.03418L8.13037 4.20117H8.72607L9.13818 3.12891L9.62158 4.20117H10.1206L10.438 3.03418L9.49658 2.20117H10.7261L11.1382 1.12891L11.6216 2.20117H12.6704L11.8462 3.03418L12.1304 4.20117H12.7261L13.1382 3.12891L13.6216 4.20117H14.1206L14.438 3.03418L13.4966 2.20117H14.7261L15.1382 1.12891L15.6216 2.20117ZM10.2905 8.20117H10.6704L9.84619 9.03418L10.1304 10.2012H10.7261L11.1382 9.12891L11.6216 10.2012H12.1206L12.438 9.03418L11.4966 8.20117H11.9624L11.1401 7.60938L10.2905 8.20117ZM6.29053 8.20117H6.67041L5.84619 9.03418L6.13037 10.2012H6.72607L7.13818 9.12891L7.62158 10.2012H8.12061L8.43799 9.03418L7.49658 8.20117H7.9624L7.14014 7.60938L6.29053 8.20117ZM12.2905 6.20117H12.6704L11.8462 7.03418L12.1304 8.20117H12.7261L13.1382 7.12891L13.6216 8.20117H14.1206L14.438 7.03418L13.4966 6.20117H13.9624L13.1401 5.60938L12.2905 6.20117ZM4.29053 6.20117H4.67041L3.84619 7.03418L4.13037 8.20117H4.72607L5.13818 7.12891L5.62158 8.20117H6.12061L6.43799 7.03418L5.49658 6.20117H5.9624L5.14014 5.60938L4.29053 6.20117ZM8.29053 6.20117H8.67041L7.84619 7.03418L8.13037 8.20117H8.72607L9.13818 7.12891L9.62158 8.20117H10.1206L10.438 7.03418L9.49658 6.20117H9.9624L9.14014 5.60938L8.29053 6.20117ZM6.29053 4.20117H6.67041L5.84619 5.03418L6.13037 6.20117H6.72607L7.13818 5.12891L7.62158 6.20117H8.12061L8.43799 5.03418L7.49658 4.20117H7.9624L7.14014 3.60938L6.29053 4.20117ZM10.2905 4.20117H10.6704L9.84619 5.03418L10.1304 6.20117H10.7261L11.1382 5.12891L11.6216 6.20117H12.1206L12.438 5.03418L11.4966 4.20117H11.9624L11.1401 3.60938L10.2905 4.20117Z" fill="#F7FCFF"/>
</svg>
